<?xml version="1.0" encoding="utf-8"?>
<!-- Generator: Adobe Illustrator 15.0.2, SVG Export Plug-In  -->
<!DOCTYPE svg PUBLIC "-//W3C//DTD SVG 1.1//EN" "http://www.w3.org/Graphics/SVG/1.1/DTD/svg11.dtd" [
	<!ENTITY ns_flows "http://ns.adobe.com/Flows/1.0/">
]>
<svg version="1.1"
	 xmlns="http://www.w3.org/2000/svg" xmlns:xlink="http://www.w3.org/1999/xlink" xmlns:a="http://ns.adobe.com/AdobeSVGViewerExtensions/3.0/"
	 x="0px" y="0px" width="48px" height="48px" viewBox="0 0 48 48" style="overflow:visible;enable-background:new 0 0 48 48;"
	 xml:space="preserve">
<defs>
</defs>
<rect style="display:none;fill:#F2F2F2;" width="48" height="48"/>
<path style="display:none;fill:#FFFFFF;" d="M6.09,26.118h16.042V6.062H6.09V26.118z M6.09,42.159h16.042v-12.03H6.09V42.159z
	 M26.146,42.159h16.042V22.106H26.146V42.159z M26.146,6.062v12.032h16.042V6.062H26.146z"/>
<path style="display:none;fill:#FFFFFF;" d="M23.973,3.989c-11.021,0-19.968,8.936-19.968,19.968s8.947,19.969,19.968,19.969
	c11.027,0,19.973-8.937,19.973-19.969S35,3.989,23.973,3.989z M25.975,33.942h-3.999v-3.995h3.999V33.942z M25.975,25.954h-3.999
	V13.973h3.999V25.954z"/>
<path style="display:none;fill:#FFFFFF;" d="M38.809,25.942c0.08-0.639,0.14-1.288,0.14-1.946s-0.06-1.307-0.14-1.946l4.223-3.303
	c0.379-0.299,0.489-0.838,0.239-1.277l-3.992-6.917c-0.249-0.428-0.768-0.608-1.218-0.428l-4.971,2.006
	c-1.025-0.789-2.153-1.458-3.372-1.966l-0.749-5.29c-0.089-0.468-0.498-0.838-0.997-0.838h-7.982c-0.499,0-0.909,0.37-0.988,0.838
	l-0.748,5.29c-1.219,0.509-2.345,1.167-3.375,1.966l-4.968-2.006c-0.451-0.169-0.969,0-1.218,0.428L4.701,17.47
	c-0.25,0.429-0.141,0.968,0.24,1.277l4.212,3.303c-0.08,0.639-0.141,1.287-0.141,1.946s0.061,1.308,0.141,1.946L4.94,29.244
	c-0.38,0.299-0.49,0.837-0.24,1.278l3.992,6.914c0.249,0.43,0.767,0.61,1.218,0.43l4.968-2.005c1.03,0.788,2.156,1.455,3.375,1.965
	l0.748,5.289c0.08,0.47,0.489,0.838,0.988,0.838h7.982c0.499,0,0.908-0.368,0.987-0.838l0.749-5.289
	c1.217-0.51,2.346-1.168,3.372-1.965l4.97,2.005c0.449,0.17,0.97,0,1.22-0.43l3.99-6.914c0.251-0.431,0.138-0.969-0.239-1.278
	L38.809,25.942z M23.98,30.979c-3.862,0-6.985-3.121-6.985-6.983c0-3.862,3.123-6.985,6.985-6.985c3.861,0,6.985,3.124,6.985,6.985
	C30.966,27.858,27.842,30.979,23.98,30.979z"/>
<path style="display:none;fill:#FFFFFF;" d="M30.607,22.79c2.694,0,4.867-2.188,4.867-4.882c0-2.692-2.173-4.882-4.867-4.882
	s-4.881,2.19-4.881,4.882C25.727,20.602,27.913,22.79,30.607,22.79z M17.588,22.79c2.693,0,4.865-2.188,4.865-4.882
	c0-2.692-2.171-4.882-4.865-4.882c-2.694,0-4.882,2.19-4.882,4.882C12.707,20.602,14.894,22.79,17.588,22.79z M17.588,26.043
	c-3.8,0-11.392,1.902-11.392,5.694v4.068H28.98v-4.068C28.98,27.945,21.389,26.043,17.588,26.043z M30.607,26.043
	c-0.473,0-1.002,0.033-1.57,0.089c1.888,1.358,3.197,3.189,3.197,5.605v4.068H42v-4.068C42,27.945,34.407,26.043,30.607,26.043z"/>
<path style="display:none;fill:#FFFFFF;" d="M28.914,19.06V4.088h-9.98V19.06H3.963v9.979h14.971V44.01h9.98V29.039h14.967V19.06
	H28.914z"/>
<path style="display:none;fill:#FFFFFF;" d="M39.496,4.055H8.434c-2.453,0-4.438,1.986-4.438,4.438v31.062
	c0,2.451,1.985,4.438,4.438,4.438h31.062c2.45,0,4.438-1.986,4.438-4.438V8.492C43.934,6.041,41.946,4.055,39.496,4.055z
	 M19.527,35.117L8.434,24.023l3.14-3.14l7.954,7.954l16.829-16.829l3.14,3.14L19.527,35.117z"/>
<path style="display:none;fill:#FFFFFF;" d="M35.062,44V4H12.84v40 M21.729,39.556h-4.444v-4.444h4.444V39.556z M21.729,30.667
	h-4.444v-4.444h4.444V30.667z M21.729,21.778h-4.444v-4.444h4.444V21.778z M21.729,12.889h-4.444V8.444h4.444V12.889z
	 M30.618,39.556h-4.444v-4.444h4.444V39.556z M30.618,30.667h-4.444v-4.444h4.444V30.667z M30.618,21.778h-4.444v-4.444h4.444
	V21.778z M30.618,12.889h-4.444V8.444h4.444V12.889z"/>
<rect x="6.062" y="8.428" style="display:none;fill:#FFFFFF;" width="35.875" height="8.854"/>
<rect x="15.67" y="19.813" style="display:none;fill:#FFFFFF;" width="18.172" height="8.846"/>
<rect x="24.754" y="30.788" style="display:none;fill:#FFFFFF;" width="17.183" height="8.851"/>
<polygon style="display:none;fill:#FFFFFF;" points="37.07,29.572 37.07,18.167 25.493,18.167 25.493,21.087 19.644,21.087 
	19.644,15.662 22.61,15.662 22.61,4.257 11.026,4.257 11.026,15.662 16.818,15.662 16.818,38.009 19.644,38.009 19.644,37.996 
	25.493,37.996 25.493,43.943 37.07,43.943 37.07,32.538 25.493,32.538 25.493,35.216 19.644,35.216 19.644,23.869 25.493,23.869 
	25.493,29.572 "/>
<path style="display:none;fill-rule:evenodd;clip-rule:evenodd;fill:#FFFFFF;" d="M18.057,32.593c-1.1,0-2.203,0-3.303,0
	c-0.093,4.285,1.68,6.709,4.016,8.567c-4.834-0.996-8.145-3.517-8.925-8.567c-1.072,0-2.143,0-3.213,0
	c1.704-2.018,3.769-3.672,5.624-5.537C14.293,28.796,16.208,30.66,18.057,32.593z"/>
<path style="display:none;fill:#FFFFFF;" d="M28.947,29.29c-3.513,0-9.86,1.426-12.155,4.264c0.377,2.781,1.305,5.017,2.587,6.893
	H41.96v-4.65C41.96,31.467,33.286,29.29,28.947,29.29z"/>
<path style="display:none;fill-rule:evenodd;clip-rule:evenodd;fill:#FFFFFF;" d="M18.77,21.617c0.181,0.92,0.472,1.73,0.625,2.677
	c-1.19,0.863-2.394,1.711-3.304,2.856c-1.211-0.87-2.074-2.09-3.213-3.035c-1.391,1.256-2.625,2.669-4.017,3.925
	c-0.951,0-1.903,0-2.855,0c0.519-4.18,2.564-6.834,5.534-8.566C13.066,20.989,15.571,22.356,18.77,21.617z"/>
<circle style="display:none;fill:#FFFFFF;" cx="28.947" cy="20.075" r="8.48"/>
<path style="display:none;fill:#FFFFFF;" d="M23.976,11.215c-0.93-2.486-3.33-4.257-6.145-4.257c-3.622,0-6.558,2.936-6.558,6.558
	c0,3.623,2.937,6.559,6.558,6.559c0.146,0,0.289-0.007,0.432-0.015C18.534,16.232,20.773,12.949,23.976,11.215z"/>
<path style="display:none;fill:#FFFFFF;" d="M27.796,4.187H11.83c-2.207,0-3.973,1.786-3.973,3.993l-0.02,31.936
	c0,2.204,1.767,3.99,3.973,3.99h23.969c2.207,0,3.992-1.786,3.992-3.99V16.162L27.796,4.187z M31.789,36.122H15.82V32.13h15.969
	V36.122z M31.789,28.139H15.82v-3.992h15.969V28.139z M25.801,18.159V7.179l10.976,10.979H25.801z"/>
<path style="display:none;fill:#FFFFFF;" d="M6.087,34.473v7.461h7.461l22.016-22.016l-7.461-7.46L6.087,34.473z M41.312,14.169
	c0.776-0.778,0.776-2.041,0-2.815l-4.645-4.646c-0.775-0.777-2.04-0.777-2.815,0l-3.641,3.642l7.461,7.46L41.312,14.169z"/>
<path style="display:none;fill:none;" d="M36.5,3.5h48v48h-48V3.5z"/>
<path style="display:none;fill:#FFFFFF;" d="M11.865,38.048c0,2.215,1.794,4.007,4.006,4.007h16.024
	c2.214,0,4.005-1.792,4.005-4.007V14.012H11.865V38.048z M37.904,8.003h-7.011L28.891,6H18.875l-2.003,2.003h-7.01v4.006h28.042
	V8.003z"/>
<path style="display:none;fill:#FFFFFF;" d="M28.893,24.149c3.603,0,6.521-2.927,6.521-6.523c0-3.604-2.919-6.522-6.521-6.522
	c-3.604,0-6.523,2.919-6.523,6.522C22.369,21.222,25.289,24.149,28.893,24.149z M14.215,20.888v-4.893h-3.262v4.893H6.062v3.262
	h4.891v4.893h3.262v-4.893h4.893v-3.262H14.215z M28.893,27.411c-4.346,0-13.047,2.176-13.047,6.522v3.262h26.092v-3.262
	C41.938,29.587,33.237,27.411,28.893,27.411z"/>
<path style="display:none;fill:#FFFFFF;" d="M40.07,8.111H8.008c-2.215,0-3.988,1.795-3.988,4.008L4,36.166
	c0,2.215,1.792,4.008,4.008,4.008H40.07c2.214,0,4.008-1.793,4.008-4.008V12.119C44.078,9.906,42.284,8.111,40.07,8.111z
	 M40.07,16.127L24.039,26.146L8.008,16.127v-4.008l16.031,10.02l16.031-10.02V16.127z"/>
<path style="display:none;fill:#FFFFFF;" d="M32.918,4.018L14.839,4c-1.999,0-3.598,1.617-3.598,3.616v32.542
	c0,1.997,1.6,3.615,3.598,3.615h18.079c1.997,0,3.616-1.618,3.616-3.615V7.616C36.534,5.617,34.915,4.018,32.918,4.018z
	 M32.918,36.542H14.839V11.231h18.079V36.542z"/>
<path style="display:none;fill:#FFFFFF;" d="M31.346,13.167v20.705c0,3.979-3.223,7.202-7.201,7.202
	c-3.979,0-7.202-3.224-7.202-7.202V11.366c0-2.484,2.017-4.501,4.501-4.501c2.485,0,4.501,2.017,4.501,4.501v18.905
	c0,0.99-0.803,1.801-1.801,1.801c-0.999,0-1.8-0.811-1.8-1.801V13.167h-2.701v17.104c0,2.484,2.017,4.502,4.501,4.502
	s4.501-2.018,4.501-4.502V11.366c0-3.979-3.223-7.202-7.202-7.202s-7.202,3.223-7.202,7.202v22.505c0,5.474,4.438,9.903,9.902,9.903
	c5.465,0,9.902-4.43,9.902-9.903V13.167H31.346z"/>
<path style="display:none;fill:#FFFFFF;" d="M37.89,16h-28c-3.311,0-6,2.69-6,6v12h8v8h24v-8h8V22C43.89,18.69,41.2,16,37.89,16z
	 M31.89,38h-16V28h16V38z M37.89,24c-1.109,0-2-0.89-2-2c0-1.109,0.891-2,2-2s2,0.891,2,2C39.89,23.11,38.999,24,37.89,24z M35.89,6
	h-24v8h24V6z"/>
<path style="display:none;fill:#FFFFFF;" d="M40,9.98H8c-2.209,0-3.98,1.791-3.98,4L4,33.98c0,2.211,1.791,4,4,4h32
	c2.211,0,4-1.789,4-4v-20C44,11.771,42.211,9.98,40,9.98z M22,15.98h4v4h-4V15.98z M22,21.98h4v4h-4V21.98z M16,15.98h4v4h-4V15.98z
	 M16,21.98h4v4h-4V21.98z M14,25.98h-4v-4h4V25.98z M14,19.98h-4v-4h4V19.98z M32,33.98H16v-4h16V33.98z M32,25.98h-4v-4h4V25.98z
	 M32,19.98h-4v-4h4V19.98z M38,25.98h-4v-4h4V25.98z M38,19.98h-4v-4h4V19.98z"/>
<path style="display:none;fill:#FFFFFF;" d="M24.212,43.943c2.264,0,4.096-1.832,4.096-4.097h-8.193
	C20.115,42.111,21.95,43.943,24.212,43.943z M36.503,31.653V21.411c0-6.299-3.35-11.552-9.218-12.946V7.073
	c0-1.7-1.372-3.073-3.073-3.073c-1.7,0-3.073,1.373-3.073,3.073v1.392c-5.869,1.394-9.218,6.647-9.218,12.946v10.242L7.825,35.75
	v2.048H40.6V35.75L36.503,31.653z"/>
<path style="display:none;fill:#FFFFFF;" d="M31.832,28.663h-1.631l-0.58-0.556c2.025-2.354,3.241-5.407,3.241-8.73
	c0-7.406-6.006-13.412-13.412-13.412c-7.407,0-13.413,6.006-13.413,13.412c0,7.408,6.006,13.412,13.413,13.412
	c3.321,0,6.375-1.217,8.729-3.238l0.557,0.578v1.629l10.317,10.297l3.074-3.075L31.832,28.663z M19.451,28.663
	c-5.139,0-9.286-4.148-9.286-9.286c0-5.137,4.147-9.285,9.286-9.285c5.139,0,9.286,4.148,9.286,9.285
	C28.736,24.515,24.589,28.663,19.451,28.663z"/>
<path style="display:none;fill:#FFFFFF;" d="M24.858,20.57h-4.42v4.421h-2.21V20.57h-4.42v-2.21h4.42v-4.421h2.21v4.421h4.42V20.57z
	"/>
<path style="display:none;fill:#FFFFFF;" d="M31.655,28.646h-1.628l-0.578-0.555c2.022-2.351,3.235-5.398,3.235-8.715
	c0-7.395-5.993-13.389-13.388-13.389c-7.394,0-13.389,5.994-13.389,13.389c0,7.396,5.995,13.389,13.389,13.389
	c3.315,0,6.364-1.215,8.714-3.234l0.555,0.577v1.628l10.299,10.279l3.07-3.07L31.655,28.646z M19.296,28.646
	c-5.128,0-9.27-4.139-9.27-9.27c0-5.129,4.142-9.27,9.27-9.27c5.13,0,9.269,4.141,9.269,9.27
	C28.565,24.507,24.426,28.646,19.296,28.646z M14.148,18.348h10.298v2.06H14.148V18.348z"/>
<path style="display:none;fill:#FFFFFF;" d="M34.004,6.139H9.962c-2.215,0-4.007,1.793-4.007,4.007v28.049
	c0,2.214,1.792,4.007,4.007,4.007h28.048c2.213,0,4.007-1.793,4.007-4.007V14.152L34.004,6.139z M23.986,38.194
	c-3.316,0-6.01-2.694-6.01-6.011s2.694-6.011,6.01-6.011c3.316,0,6.011,2.694,6.011,6.011S27.303,38.194,23.986,38.194z
	 M29.997,18.159H9.962v-8.014h20.035V18.159z"/>
<path style="display:none;fill:#FFFFFF;" d="M40.95,10.685l-2.751-3.337c-0.557-0.655-1.381-1.082-2.304-1.082H12.062
	c-0.923,0-1.748,0.427-2.294,1.082l-2.751,3.337c-0.576,0.695-0.913,1.569-0.913,2.532v24.827c0,2.194,1.777,3.972,3.972,3.972
	h27.806c2.192,0,3.972-1.777,3.972-3.972V13.217C41.854,12.254,41.517,11.379,40.95,10.685z M23.979,35.064L13.055,24.141h6.951
	v-3.973h7.944v3.973h6.952L23.979,35.064z M10.324,10.238l1.618-1.986h23.834l1.857,1.986H10.324z"/>
<path style="display:none;fill:#FFFFFF;" d="M28.066,4h-16c-2.211,0-3.98,1.789-3.98,4l-0.02,32c0,2.209,1.77,4,3.98,4h24.02
	c2.209,0,4-1.791,4-4V16L28.066,4z M32.066,32h-6v6h-4v-6h-6v-4h6v-6h4v6h6V32z M26.066,18V7l11,11H26.066z"/>
<path style="display:none;fill:#FFFFFF;" d="M24.102,4c-7.721,0-14,6.28-14,13.999c0,10.5,14,26,14,26s13.999-15.5,13.999-26
	C38.101,10.281,31.822,4,24.102,4z M24.104,19.939c-3.176,0-5.75-2.574-5.75-5.75s2.574-5.75,5.75-5.75s5.75,2.574,5.75,5.75
	S27.279,19.939,24.104,19.939z"/>
<path style="display:none;fill:#FFFFFF;" d="M24.215,4c-7.721,0-14,6.281-14,14c0,10.5,14,26,14,26s14-15.5,14-26
	C38.215,10.281,31.936,4,24.215,4z M32.215,20h-6v6h-4v-6h-6v-4h6v-6h4v6h6V20z"/>
<path style="display:none;fill:#FFFFFF;" d="M31.875,17.383c0-4.402-3.581-7.985-7.984-7.985c-4.403,0-7.985,3.583-7.985,7.985
	c0,5.988,7.985,14.829,7.985,14.829S31.875,23.372,31.875,17.383z M20.613,15.209c0-1.811,1.468-3.279,3.279-3.279
	c1.811,0,3.279,1.468,3.279,3.279c0,1.812-1.468,3.281-3.279,3.281C22.081,18.49,20.613,17.021,20.613,15.209z"/>
<path style="display:none;fill:#FFFFFF;" d="M43.672,37.11l-5.9-12.847c-0.203-0.442-0.665-0.739-1.15-0.739h-5.112
	c-0.404,0.759-0.837,1.508-1.283,2.235H36l4.951,10.785H6.849l5.092-10.785h5.614c-0.447-0.728-0.879-1.476-1.283-2.235h-4.945
	c-0.488,0-0.938,0.285-1.147,0.727L4.115,37.1c-0.174,0.371-0.15,0.796,0.065,1.137c0.216,0.341,0.59,0.544,1,0.544h37.421
	c0.406,0,0.778-0.201,0.995-0.538C43.813,37.903,43.841,37.48,43.672,37.11z"/>
<path style="fill:#FFFFFF;" d="M23.996,3.99c-11.039,0-20,8.949-20,20.001c0,11.05,8.961,20,20,20c11.041,0,20-8.95,20-20
	C43.996,12.939,35.037,3.99,23.996,3.99z M35.135,32.202l-2.928,2.925l-8.211-8.209l-8.209,8.209l-2.927-2.925l8.211-8.211
	l-8.211-8.21l2.927-2.927l8.209,8.21l8.211-8.21l2.928,2.927l-8.211,8.21L35.135,32.202z"/>
<path style="display:none;fill:#FFFFFF;" d="M40.035,4.018H8.034c-2.209,0-3.98,1.79-3.98,4l-0.02,36l8-8h28.001c2.209,0,4-1.79,4-4
	v-24C44.035,5.808,42.244,4.018,40.035,4.018z M36.035,28.018H12.034v-4h24.001V28.018z M36.035,22.018H12.034v-4h24.001V22.018z
	 M36.035,16.018H12.034v-4h24.001V16.018z"/>
<path style="display:none;fill:#FFFFFF;" d="M40.4,9.495c-2.01-0.636-4.241-0.91-6.37-0.91c-3.55,0-7.372,0.729-10.01,2.73
	c-2.64-2.001-6.46-2.73-10.01-2.73c-3.55,0-7.371,0.729-10.01,2.73v26.663c0,0.456,0.455,0.911,0.91,0.911
	c0.183,0,0.274-0.091,0.455-0.091c2.458-1.184,6.006-2.003,8.646-2.003c3.549,0,7.37,0.728,10.01,2.729
	c2.458-1.547,6.916-2.729,10.01-2.729c3.003,0,6.1,0.545,8.646,1.911c0.184,0.092,0.272,0.092,0.454,0.092
	c0.456,0,0.91-0.455,0.91-0.91V11.315C42.948,10.496,41.766,9.95,40.4,9.495z M40.4,34.065c-2.001-0.636-4.187-0.91-6.37-0.91
	c-3.095,0-7.553,1.184-10.01,2.73v-20.93c2.458-1.547,6.916-2.73,10.01-2.73c2.184,0,4.369,0.274,6.37,0.91V34.065z"/>
<path style="display:none;fill:#FFFFFF;" d="M6.015,12.909c0,0.756,0.618,1.374,1.375,1.374h3.114c0.756,0,1.375-0.618,1.375-1.374
	V9.794c0-0.756-0.618-1.375-1.375-1.375H7.39c-0.757,0-1.375,0.618-1.375,1.375V12.909z"/>
<path style="display:none;fill:#FFFFFF;" d="M16.102,9.886c-0.756,0-1.375,0.618-1.375,1.374v0.183c0,0.756,0.618,1.375,1.375,1.375
	h24.37c0.757,0,1.375-0.619,1.375-1.375V11.26c0-0.755-0.618-1.374-1.375-1.374H16.102z"/>
<path style="display:none;fill:#FFFFFF;" d="M6.015,21.344c0,0.756,0.618,1.375,1.375,1.375h3.114c0.756,0,1.375-0.618,1.375-1.375
	v-3.115c0-0.756-0.618-1.375-1.375-1.375H7.39c-0.757,0-1.375,0.619-1.375,1.375V21.344z"/>
<path style="display:none;fill:#FFFFFF;" d="M14.728,19.878c0,0.755,0.618,1.374,1.375,1.374h24.37c0.757,0,1.375-0.618,1.375-1.374
	v-0.184c0-0.756-0.618-1.374-1.375-1.374h-24.37c-0.756,0-1.375,0.618-1.375,1.374V19.878z"/>
<path style="display:none;fill:#FFFFFF;" d="M6,30.148c0,0.756,0.618,1.374,1.374,1.374h3.115c0.756,0,1.374-0.618,1.374-1.374
	v-3.115c0-0.756-0.618-1.374-1.374-1.374H7.374C6.618,25.659,6,26.277,6,27.033V30.148z"/>
<path style="display:none;fill:#FFFFFF;" d="M14.713,28.683c0,0.756,0.618,1.375,1.374,1.375h24.37c0.755,0,1.373-0.619,1.373-1.375
	V28.5c0-0.756-0.618-1.374-1.373-1.374h-24.37c-0.756,0-1.374,0.618-1.374,1.374V28.683z"/>
<path style="display:none;fill:#FFFFFF;" d="M6,38.583c0,0.756,0.618,1.374,1.374,1.374h3.115c0.756,0,1.374-0.618,1.374-1.374
	v-3.114c0-0.757-0.618-1.375-1.374-1.375H7.374C6.618,34.094,6,34.712,6,35.469V38.583z"/>
<path style="display:none;fill:#FFFFFF;" d="M14.713,37.117c0,0.755,0.618,1.374,1.374,1.374h24.37c0.755,0,1.373-0.619,1.373-1.374
	v-0.184c0-0.756-0.618-1.374-1.373-1.374h-24.37c-0.756,0-1.374,0.618-1.374,1.374V37.117z"/>
<path style="display:none;fill:#FFFFFF;" d="M13.202,10.009V7.906c0-0.588-0.481-1.07-1.07-1.07H7.07C6.481,6.836,6,7.317,6,7.906
	v2.103H13.202z"/>
<rect x="6" y="36.536" style="display:none;fill:#FFFFFF;" width="7.202" height="1.497"/>
<rect x="6" y="13.646" style="display:none;fill:#FFFFFF;" width="7.202" height="21.82"/>
<rect x="6" y="11.078" style="display:none;fill:#FFFFFF;" width="7.202" height="1.498"/>
<path style="display:none;fill:#FFFFFF;" d="M6,39.103v1.034c0,0.588,0.481,1.069,1.07,1.069h5.062c0.589,0,1.07-0.481,1.07-1.069
	v-1.034H6z"/>
<rect x="15.027" y="13.468" style="display:none;fill:#FFFFFF;" width="5.349" height="23.268"/>
<path style="display:none;fill:#FFFFFF;" d="M15.027,39.125v1.012c0,0.588,0.481,1.069,1.07,1.069h3.208
	c0.589,0,1.07-0.481,1.07-1.069v-1.012H15.027z"/>
<path style="display:none;fill:#FFFFFF;" d="M20.376,11.078V9.759c0-0.588-0.481-1.069-1.07-1.069h-3.208
	c-0.589,0-1.07,0.481-1.07,1.069v1.319H20.376z"/>
<path style="display:none;fill:#FFFFFF;" d="M35.096,40.526c0.146,0.57,0.73,0.918,1.302,0.771l4.767-1.217
	c0.57-0.146,0.917-0.73,0.771-1.302l-0.442-1.734l-6.841,1.746L35.096,40.526z"/>
<path style="display:none;fill:#FFFFFF;" d="M33.611,10.502l-4.767,1.217c-0.571,0.146-0.918,0.731-0.772,1.302l0.45,1.761
	l6.839-1.747l-0.448-1.761C34.767,10.704,34.182,10.357,33.611,10.502z"/>
<rect x="31.478" y="15.734" transform="matrix(-0.9689 0.2475 -0.2475 -0.9689 75.3386 42.3565)" style="display:none;fill:#FFFFFF;" width="7.059" height="20.358"/>
<rect x="22.08" y="36.914" style="display:none;fill:#FFFFFF;" width="6.346" height="1.117"/>
<path style="display:none;fill:#FFFFFF;" d="M22.08,40.137c0,0.588,0.481,1.069,1.07,1.069h4.207c0.588,0,1.069-0.481,1.069-1.069
	v-1.012H22.08V40.137z"/>
<rect x="22.08" y="20.598" style="display:none;fill:#FFFFFF;" width="6.346" height="15.223"/>
<rect x="22.08" y="18.388" style="display:none;fill:#FFFFFF;" width="6.346" height="1.117"/>
<path style="display:none;fill:#FFFFFF;" d="M27.356,15.215h-4.207c-0.588,0-1.07,0.481-1.07,1.069v1.011h6.346v-1.011
	C28.426,15.696,27.944,15.215,27.356,15.215z"/>
</svg>
