<?xml version="1.0" encoding="utf-8"?>
<!-- Generator: Adobe Illustrator 15.0.2, SVG Export Plug-In  -->
<!DOCTYPE svg PUBLIC "-//W3C//DTD SVG 1.1//EN" "http://www.w3.org/Graphics/SVG/1.1/DTD/svg11.dtd" [
	<!ENTITY ns_flows "http://ns.adobe.com/Flows/1.0/">
]>
<svg version="1.1"
	 xmlns="http://www.w3.org/2000/svg" xmlns:xlink="http://www.w3.org/1999/xlink" xmlns:a="http://ns.adobe.com/AdobeSVGViewerExtensions/3.0/"
	 x="0px" y="0px" width="48px" height="48px" viewBox="0 0 48 48" style="overflow:visible;enable-background:new 0 0 48 48;"
	 xml:space="preserve">
<defs>
</defs>
<rect style="display:none;fill:#F2F2F2;" width="48" height="48"/>
<path style="display:none;fill:#FFFFFF;" d="M4.018,26.15h17.726V3.99H4.018V26.15z M4.018,43.875h17.726V30.582H4.018V43.875z
	 M26.178,43.875h17.726V21.717H26.178V43.875z M26.178,3.99v13.294h17.726V3.99H26.178z"/>
<path style="display:none;fill:#FFFFFF;" d="M23.973,3.989c-11.021,0-19.968,8.936-19.968,19.968s8.947,19.969,19.968,19.969
	c11.027,0,19.973-8.937,19.973-19.969S35,3.989,23.973,3.989z M25.975,33.942h-3.999v-3.995h3.999V33.942z M25.975,25.954h-3.999
	V13.973h3.999V25.954z"/>
<path style="fill:#FFFFFF;" d="M38.809,25.942c0.08-0.639,0.14-1.288,0.14-1.946s-0.06-1.307-0.14-1.946l4.223-3.303
	c0.379-0.299,0.489-0.838,0.239-1.277l-3.992-6.917c-0.249-0.428-0.768-0.608-1.218-0.428l-4.971,2.006
	c-1.025-0.789-2.153-1.458-3.372-1.966l-0.749-5.29c-0.089-0.468-0.498-0.838-0.997-0.838h-7.982c-0.499,0-0.909,0.37-0.988,0.838
	l-0.748,5.29c-1.219,0.509-2.345,1.167-3.375,1.966l-4.968-2.006c-0.451-0.169-0.969,0-1.218,0.428L4.701,17.47
	c-0.25,0.429-0.141,0.968,0.24,1.277l4.212,3.303c-0.08,0.639-0.141,1.287-0.141,1.946s0.061,1.308,0.141,1.946L4.94,29.244
	c-0.38,0.299-0.49,0.837-0.24,1.278l3.992,6.914c0.249,0.43,0.767,0.61,1.218,0.43l4.968-2.005c1.03,0.788,2.156,1.455,3.375,1.965
	l0.748,5.289c0.08,0.47,0.489,0.838,0.988,0.838h7.982c0.499,0,0.908-0.368,0.987-0.838l0.749-5.289
	c1.217-0.51,2.346-1.168,3.372-1.965l4.97,2.005c0.449,0.17,0.97,0,1.22-0.43l3.99-6.914c0.251-0.431,0.138-0.969-0.239-1.278
	L38.809,25.942z M23.98,30.979c-3.862,0-6.985-3.121-6.985-6.983c0-3.862,3.123-6.985,6.985-6.985c3.861,0,6.985,3.124,6.985,6.985
	C30.966,27.858,27.842,30.979,23.98,30.979z"/>
<path style="display:none;fill:#FFFFFF;" d="M31.314,22.585c3,0,5.42-2.437,5.42-5.436c0-2.998-2.42-5.437-5.42-5.437
	s-5.435,2.438-5.435,5.437C25.88,20.149,28.314,22.585,31.314,22.585z M16.818,22.585c2.999,0,5.417-2.437,5.417-5.436
	c0-2.998-2.418-5.437-5.417-5.437c-3,0-5.436,2.438-5.436,5.437C11.382,20.149,13.818,22.585,16.818,22.585z M16.818,26.208
	c-4.231,0-12.685,2.117-12.685,6.34v4.53h25.369v-4.53C29.503,28.325,21.05,26.208,16.818,26.208z M31.314,26.208
	c-0.526,0-1.115,0.037-1.749,0.099c2.104,1.512,3.561,3.551,3.561,6.241v4.53H44v-4.53C44,28.325,35.546,26.208,31.314,26.208z"/>
<path style="display:none;fill:#FFFFFF;" d="M28.914,19.06V4.088h-9.98V19.06H3.963v9.979h14.971V44.01h9.98V29.039h14.967V19.06
	H28.914z"/>
<path style="display:none;fill:#FFFFFF;" d="M39.496,4.055H8.434c-2.453,0-4.438,1.986-4.438,4.438v31.062
	c0,2.451,1.985,4.438,4.438,4.438h31.062c2.45,0,4.438-1.986,4.438-4.438V8.492C43.934,6.041,41.946,4.055,39.496,4.055z
	 M19.527,35.117L8.434,24.023l3.14-3.14l7.954,7.954l16.829-16.829l3.14,3.14L19.527,35.117z"/>
<path style="display:none;fill:#FFFFFF;" d="M35.062,44V4H12.84v40 M21.729,39.556h-4.444v-4.444h4.444V39.556z M21.729,30.667
	h-4.444v-4.444h4.444V30.667z M21.729,21.778h-4.444v-4.444h4.444V21.778z M21.729,12.889h-4.444V8.444h4.444V12.889z
	 M30.618,39.556h-4.444v-4.444h4.444V39.556z M30.618,30.667h-4.444v-4.444h4.444V30.667z M30.618,21.778h-4.444v-4.444h4.444
	V21.778z M30.618,12.889h-4.444V8.444h4.444V12.889z"/>
<rect x="4" y="6.634" style="display:none;fill:#FFFFFF;" width="40" height="9.872"/>
<rect x="14.712" y="19.328" style="display:none;fill:#FFFFFF;" width="20.261" height="9.864"/>
<rect x="24.841" y="31.564" style="display:none;fill:#FFFFFF;" width="19.159" height="9.868"/>
<polygon style="display:none;fill:#FFFFFF;" points="37.07,29.572 37.07,18.167 25.493,18.167 25.493,21.087 19.644,21.087 
	19.644,15.662 22.61,15.662 22.61,4.257 11.026,4.257 11.026,15.662 16.818,15.662 16.818,38.009 19.644,38.009 19.644,37.996 
	25.493,37.996 25.493,43.943 37.07,43.943 37.07,32.538 25.493,32.538 25.493,35.216 19.644,35.216 19.644,23.869 25.493,23.869 
	25.493,29.572 "/>
<path style="display:none;fill-rule:evenodd;clip-rule:evenodd;fill:#FFFFFF;" d="M17.334,33.776c-1.217,0-2.436,0-3.653,0
	c-0.104,4.74,1.858,7.421,4.442,9.477c-5.347-1.103-9.008-3.89-9.872-9.477c-1.185,0-2.37,0-3.554,0
	c1.884-2.231,4.169-4.061,6.22-6.123C13.172,29.577,15.29,31.64,17.334,33.776z"/>
<path style="display:none;fill:#FFFFFF;" d="M29.38,30.124c-3.885,0-10.905,1.576-13.444,4.716c0.417,3.076,1.442,5.548,2.862,7.623
	h24.975V37.32C43.772,32.531,34.179,30.124,29.38,30.124z"/>
<path style="display:none;fill-rule:evenodd;clip-rule:evenodd;fill:#FFFFFF;" d="M18.124,21.637c0.2,1.017,0.522,1.913,0.691,2.96
	c-1.316,0.954-2.647,1.893-3.654,3.159c-1.339-0.963-2.294-2.311-3.554-3.356c-1.538,1.39-2.904,2.953-4.443,4.341
	c-1.051,0-2.105,0-3.158,0c0.574-4.623,2.836-7.559,6.121-9.475C11.815,20.943,14.585,22.455,18.124,21.637z"/>
<circle style="display:none;fill:#FFFFFF;" cx="29.379" cy="19.931" r="9.38"/>
<path style="display:none;fill:#FFFFFF;" d="M23.881,10.132c-1.029-2.75-3.683-4.709-6.796-4.709c-4.006,0-7.253,3.248-7.253,7.254
	s3.248,7.254,7.253,7.254c0.162,0,0.32-0.008,0.478-0.017C17.862,15.681,20.339,12.05,23.881,10.132z"/>
<path style="display:none;fill:#FFFFFF;" d="M27.796,4.187H11.83c-2.207,0-3.973,1.786-3.973,3.993l-0.02,31.936
	c0,2.204,1.767,3.99,3.973,3.99h23.969c2.207,0,3.992-1.786,3.992-3.99V16.162L27.796,4.187z M31.789,36.122H15.82V32.13h15.969
	V36.122z M31.789,28.139H15.82v-3.992h15.969V28.139z M25.801,18.159V7.179l10.976,10.979H25.801z"/>
<path style="display:none;fill:#FFFFFF;" d="M3.962,35.762v8.359h8.359l24.667-24.667l-8.359-8.359L3.962,35.762z M43.43,13.013
	c0.869-0.871,0.869-2.286,0-3.154l-5.205-5.205c-0.868-0.871-2.286-0.871-3.154,0l-4.079,4.08l8.359,8.359L43.43,13.013z"/>
<path style="display:none;fill:#FFFFFF;" d="M10.797,39.446c0,2.434,1.971,4.402,4.402,4.402h17.607
	c2.433,0,4.401-1.969,4.401-4.402V13.036H10.797V39.446z M39.409,6.433h-7.703l-2.201-2.201H18.5L16.3,6.433H8.597v4.402h30.812
	V6.433z"/>
<path style="display:none;fill:#FFFFFF;" d="M29.534,24.195c4.029,0,7.295-3.274,7.295-7.296c0-4.03-3.266-7.295-7.295-7.295
	c-4.03,0-7.296,3.265-7.296,7.295C22.238,20.921,25.504,24.195,29.534,24.195z M13.118,20.547v-5.472H9.47v5.472H4v3.648h5.47v5.472
	h3.648v-5.472h5.472v-3.648H13.118z M29.534,27.843c-4.86,0-14.592,2.434-14.592,7.295v3.648h29.183v-3.648
	C44.125,30.276,34.395,27.843,29.534,27.843z"/>
<path style="display:none;fill:#FFFFFF;" d="M40.038,8.549H8.126c-2.205,0-3.97,1.786-3.97,3.989l-0.02,23.935
	c0,2.204,1.784,3.988,3.989,3.988h31.912c2.203,0,3.989-1.784,3.989-3.988V12.538C44.027,10.335,42.241,8.549,40.038,8.549z
	 M40.038,16.527l-15.956,9.972L8.126,16.527v-3.989l15.956,9.973l15.956-9.973V16.527z"/>
<path style="display:none;fill:#FFFFFF;" d="M32.918,4.018L14.839,4c-1.999,0-3.598,1.617-3.598,3.616v32.542
	c0,1.997,1.6,3.615,3.598,3.615h18.079c1.997,0,3.616-1.618,3.616-3.615V7.616C36.534,5.617,34.915,4.018,32.918,4.018z
	 M32.918,36.542H14.839V11.231h18.079V36.542z"/>
<path style="display:none;fill:#FFFFFF;" d="M31.346,13.167v20.705c0,3.979-3.223,7.202-7.201,7.202
	c-3.979,0-7.202-3.224-7.202-7.202V11.366c0-2.484,2.017-4.501,4.501-4.501c2.485,0,4.501,2.017,4.501,4.501v18.905
	c0,0.99-0.803,1.801-1.801,1.801c-0.999,0-1.8-0.811-1.8-1.801V13.167h-2.701v17.104c0,2.484,2.017,4.502,4.501,4.502
	s4.501-2.018,4.501-4.502V11.366c0-3.979-3.223-7.202-7.202-7.202s-7.202,3.223-7.202,7.202v22.505c0,5.474,4.438,9.903,9.902,9.903
	c5.465,0,9.902-4.43,9.902-9.903V13.167H31.346z"/>
<path style="display:none;fill:#FFFFFF;" d="M37.89,16h-28c-3.311,0-6,2.69-6,6v12h8v8h24v-8h8V22C43.89,18.69,41.2,16,37.89,16z
	 M31.89,38h-16V28h16V38z M37.89,24c-1.109,0-2-0.89-2-2c0-1.109,0.891-2,2-2s2,0.891,2,2C39.89,23.11,38.999,24,37.89,24z M35.89,6
	h-24v8h24V6z"/>
<path style="display:none;fill:#FFFFFF;" d="M40,9.98H8c-2.209,0-3.98,1.791-3.98,4L4,33.98c0,2.211,1.791,4,4,4h32
	c2.211,0,4-1.789,4-4v-20C44,11.771,42.211,9.98,40,9.98z M22,15.98h4v4h-4V15.98z M22,21.98h4v4h-4V21.98z M16,15.98h4v4h-4V15.98z
	 M16,21.98h4v4h-4V21.98z M14,25.98h-4v-4h4V25.98z M14,19.98h-4v-4h4V19.98z M32,33.98H16v-4h16V33.98z M32,25.98h-4v-4h4V25.98z
	 M32,19.98h-4v-4h4V19.98z M38,25.98h-4v-4h4V25.98z M38,19.98h-4v-4h4V19.98z"/>
<path style="display:none;fill:#FFFFFF;" d="M24.212,43.943c2.264,0,4.096-1.832,4.096-4.097h-8.193
	C20.115,42.111,21.95,43.943,24.212,43.943z M36.503,31.653V21.411c0-6.299-3.35-11.552-9.218-12.946V7.073
	c0-1.7-1.372-3.073-3.073-3.073c-1.7,0-3.073,1.373-3.073,3.073v1.392c-5.869,1.394-9.218,6.647-9.218,12.946v10.242L7.825,35.75
	v2.048H40.6V35.75L36.503,31.653z"/>
<path style="display:none;fill:#FFFFFF;" d="M32.69,29.187h-1.812l-0.644-0.617c2.249-2.615,3.6-6.006,3.6-9.698
	c0-8.227-6.671-14.898-14.898-14.898c-8.228,0-14.899,6.671-14.899,14.898c0,8.229,6.671,14.898,14.899,14.898
	c3.689,0,7.083-1.352,9.697-3.597l0.618,0.642v1.81l11.461,11.438l3.415-3.416L32.69,29.187z M18.936,29.187
	c-5.708,0-10.315-4.607-10.315-10.315c0-5.706,4.606-10.313,10.315-10.313c5.709,0,10.315,4.607,10.315,10.313
	C29.251,24.579,24.645,29.187,18.936,29.187z"/>
<path style="display:none;fill:#FFFFFF;" d="M24.943,20.196h-4.91v4.911h-2.455v-4.911h-4.911v-2.455h4.911v-4.911h2.455v4.911h4.91
	V20.196z"/>
<path style="display:none;fill:#FFFFFF;" d="M32.576,29.22h-1.812l-0.643-0.618c2.25-2.615,3.6-6.007,3.6-9.697
	c0-8.228-6.669-14.898-14.898-14.898c-8.228,0-14.899,6.67-14.899,14.898c0,8.23,6.671,14.898,14.899,14.898
	c3.689,0,7.082-1.352,9.697-3.599l0.618,0.642v1.812l11.46,11.438l3.416-3.416L32.576,29.22z M18.824,29.22
	c-5.706,0-10.315-4.606-10.315-10.315c0-5.707,4.609-10.314,10.315-10.314c5.708,0,10.315,4.607,10.315,10.314
	C29.139,24.613,24.532,29.22,18.824,29.22z M13.095,17.759h11.46v2.292h-11.46V17.759z"/>
<path style="display:none;fill:#FFFFFF;" d="M35.123,3.977H8.415c-2.46,0-4.452,1.992-4.452,4.451v31.16
	c0,2.459,1.991,4.451,4.452,4.451h31.16c2.458,0,4.451-1.992,4.451-4.451V12.879L35.123,3.977z M23.994,39.588
	c-3.684,0-6.677-2.993-6.677-6.678c0-3.684,2.993-6.677,6.677-6.677c3.685,0,6.677,2.993,6.677,6.677
	C30.671,36.595,27.679,39.588,23.994,39.588z M30.671,17.331H8.415V8.428h22.256V17.331z"/>
<path style="display:none;fill:#FFFFFF;" d="M42.967,8.891l-3.044-3.693C39.307,4.473,38.395,4,37.373,4H10.998
	C9.977,4,9.064,4.473,8.459,5.198L5.415,8.891c-0.637,0.769-1.011,1.736-1.011,2.802v27.474c0,2.429,1.966,4.396,4.396,4.396h30.771
	c2.427,0,4.396-1.967,4.396-4.396V11.693C43.967,10.627,43.594,9.659,42.967,8.891z M24.186,35.87L12.097,23.781h7.692v-4.396h8.792
	v4.396h7.693L24.186,35.87z M9.075,8.396l1.79-2.198H37.24l2.056,2.198H9.075z"/>
<path style="display:none;fill:#FFFFFF;" d="M28.066,4h-16c-2.211,0-3.98,1.789-3.98,4l-0.02,32c0,2.209,1.77,4,3.98,4h24.02
	c2.209,0,4-1.791,4-4V16L28.066,4z M32.066,32h-6v6h-4v-6h-6v-4h6v-6h4v6h6V32z M26.066,18V7l11,11H26.066z"/>
<path style="display:none;fill:#FFFFFF;" d="M24.102,4c-7.721,0-14,6.28-14,13.999c0,10.5,14,26,14,26s13.999-15.5,13.999-26
	C38.101,10.281,31.822,4,24.102,4z M24.104,19.939c-3.176,0-5.75-2.574-5.75-5.75s2.574-5.75,5.75-5.75s5.75,2.574,5.75,5.75
	S27.279,19.939,24.104,19.939z"/>
<path style="display:none;fill:#FFFFFF;" d="M24.215,4c-7.721,0-14,6.281-14,14c0,10.5,14,26,14,26s14-15.5,14-26
	C38.215,10.281,31.936,4,24.215,4z M32.215,20h-6v6h-4v-6h-6v-4h6v-6h4v6h6V20z"/>
<path style="display:none;fill:#FFFFFF;" d="M31.875,17.383c0-4.402-3.581-7.985-7.984-7.985c-4.403,0-7.985,3.583-7.985,7.985
	c0,5.988,7.985,14.829,7.985,14.829S31.875,23.372,31.875,17.383z M20.613,15.209c0-1.811,1.468-3.279,3.279-3.279
	c1.811,0,3.279,1.468,3.279,3.279c0,1.812-1.468,3.281-3.279,3.281C22.081,18.49,20.613,17.021,20.613,15.209z"/>
<path style="display:none;fill:#FFFFFF;" d="M43.672,37.11l-5.9-12.847c-0.203-0.442-0.665-0.739-1.15-0.739h-5.112
	c-0.404,0.759-0.837,1.508-1.283,2.235H36l4.951,10.785H6.849l5.092-10.785h5.614c-0.447-0.728-0.879-1.476-1.283-2.235h-4.945
	c-0.488,0-0.938,0.285-1.147,0.727L4.115,37.1c-0.174,0.371-0.15,0.796,0.065,1.137c0.216,0.341,0.59,0.544,1,0.544h37.421
	c0.406,0,0.778-0.201,0.995-0.538C43.813,37.903,43.841,37.48,43.672,37.11z"/>
<path style="display:none;fill:#FFFFFF;" d="M23.996,3.99c-11.039,0-20,8.949-20,20.001c0,11.05,8.961,20,20,20
	c11.041,0,20-8.95,20-20C43.996,12.939,35.037,3.99,23.996,3.99z M35.135,32.202l-2.928,2.925l-8.211-8.209l-8.209,8.209
	l-2.927-2.925l8.211-8.211l-8.211-8.21l2.927-2.927l8.209,8.21l8.211-8.21l2.928,2.927l-8.211,8.21L35.135,32.202z"/>
<path style="display:none;fill:#FFFFFF;" d="M40.035,4.018H8.034c-2.209,0-3.98,1.79-3.98,4l-0.02,36l8-8h28.001c2.209,0,4-1.79,4-4
	v-24C44.035,5.808,42.244,4.018,40.035,4.018z M36.035,28.018H12.034v-4h24.001V28.018z M36.035,22.018H12.034v-4h24.001V22.018z
	 M36.035,16.018H12.034v-4h24.001V16.018z"/>
<path style="display:none;fill:#FFFFFF;" d="M40.256,9.692c-1.998-0.633-4.216-0.905-6.333-0.905c-3.529,0-7.328,0.725-9.952,2.714
	c-2.625-1.99-6.423-2.714-9.952-2.714c-3.529,0-7.328,0.725-9.952,2.714v26.509c0,0.453,0.452,0.905,0.904,0.905
	c0.182,0,0.272-0.09,0.453-0.09c2.444-1.177,5.971-1.991,8.595-1.991c3.529,0,7.328,0.724,9.952,2.714
	c2.443-1.538,6.876-2.714,9.952-2.714c2.986,0,6.063,0.542,8.596,1.899c0.182,0.092,0.271,0.092,0.451,0.092
	c0.453,0,0.905-0.453,0.905-0.905V11.501C42.79,10.687,41.613,10.144,40.256,9.692z M40.256,34.12
	c-1.989-0.633-4.162-0.905-6.333-0.905c-3.076,0-7.509,1.177-9.952,2.715V15.121c2.443-1.538,6.876-2.714,9.952-2.714
	c2.171,0,4.344,0.272,6.333,0.904V34.12z"/>
</svg>
